<?xml version="1.0" encoding="UTF-8"?>
<svg xmlns="http://www.w3.org/2000/svg" width="960" height="540" viewBox="0 0 960 540">
  <style>
    .title { font: bold 24px sans-serif; }
    .label { font: 14px sans-serif; }
    .box { fill: #eef6ff; stroke: #3778c2; stroke-width: 2; }
    .arrow { stroke: #555; stroke-width: 2; marker-end: url(#arrow); }
  </style>
  <defs>
    <marker id="arrow" viewBox="0 0 10 10" refX="7" refY="5" markerWidth="6" markerHeight="6" orient="auto-start-reverse">
      <path d="M 0 0 L 10 5 L 0 10 z" fill="#555" />
    </marker>
  </defs>
  <text class="title" x="30" y="40">NeoMeme Markets — High-Level Architecture</text>
  
  <!-- GUI -->
  <rect class="box" x="40" y="80" width="240" height="100" rx="8"/>
  <text class="label" x="60" y="110">PySide6 GUI</text>
  <text class="label" x="60" y="135">main_window.py</text>
  
  <!-- Brain -->
  <rect class="box" x="360" y="80" width="240" height="160" rx="8"/>
  <text class="label" x="380" y="110">Brain</text>
  <text class="label" x="380" y="135">rules_engine.py</text>
  <text class="label" x="380" y="160">ml_engine.py</text>
  
  <!-- Trading -->
  <rect class="box" x="680" y="80" width="240" height="160" rx="8"/>
  <text class="label" x="700" y="110">Trading</text>
  <text class="label" x="700" y="135">exchange.py</text>
  <text class="label" x="700" y="160">strategy.py</text>
  <text class="label" x="700" y="185">risk_manager.py</text>
  
  <!-- Security -->
  <rect class="box" x="40" y="220" width="240" height="180" rx="8"/>
  <text class="label" x="60" y="250">Security</text>
  <text class="label" x="60" y="275">wallet_manager.py</text>
  <text class="label" x="60" y="300">contract_checker.py</text>
  <text class="label" x="60" y="325">memecoin_scam_detector.py</text>
  
  <!-- Utils / Persistence -->
  <rect class="box" x="360" y="280" width="240" height="120" rx="8"/>
  <text class="label" x="380" y="310">Utils / Persistence</text>
  <text class="label" x="380" y="335">logger.py, database.py</text>
  
  <!-- External Services -->
  <rect class="box" x="680" y="280" width="240" height="120" rx="8"/>
  <text class="label" x="700" y="310">External Services</text>
  <text class="label" x="700" y="335">RPCs, Indexers, Model Store</text>
  
  <!-- Arrows -->
  <line class="arrow" x1="280" y1="130" x2="360" y2="130"/>
  <line class="arrow" x1="600" y1="160" x2="680" y2="160"/>
  <line class="arrow" x1="280" y1="260" x2="360" y2="320"/>
  <line class="arrow" x1="600" y1="320" x2="680" y2="320"/>
  <line class="arrow" x1="760" y1="240" x2="760" y2="280"/>
</svg>
