<?xml version="1.0" encoding="UTF-8"?>
<svg xmlns="http://www.w3.org/2000/svg" width="980" height="520" viewBox="0 0 980 520">
  <style>
    .box { fill:#0b1f2a; stroke:#00b3f0; stroke-width:2; rx:8; }
    .text { fill:#d8e9f0; font-family:Segoe UI,Roboto,Arial,sans-serif; font-size:14px; }
    .arrow { stroke:#83d4ff; stroke-width:2; marker-end:url(#arrowhead); }
    .title { fill:#00f5d4; font-size:20px; font-weight:bold; }
  </style>
  <defs>
    <marker id="arrowhead" markerWidth="10" markerHeight="7" refX="10" refY="3.5" orient="auto">
      <polygon points="0 0, 10 3.5, 0 7" fill="#83d4ff" />
    </marker>
  </defs>
  <text class="title" x="20" y="30">Compliance Pipeline</text>

  <rect class="box" x="40" y="60" width="140" height="60" />
  <text class="text" x="50" y="90">Token</text>

  <rect class="box" x="220" y="60" width="180" height="60" />
  <text class="text" x="230" y="90">Bytecode Analysis</text>

  <rect class="box" x="430" y="60" width="180" height="60" />
  <text class="text" x="440" y="90">Owner Privileges</text>

  <rect class="box" x="640" y="60" width="180" height="60" />
  <text class="text" x="650" y="90">Liquidity Analysis</text>

  <rect class="box" x="220" y="150" width="180" height="60" />
  <text class="text" x="230" y="180">Holder Distribution</text>

  <rect class="box" x="430" y="150" width="180" height="60" />
  <text class="text" x="440" y="180">Social Verification</text>

  <rect class="box" x="640" y="150" width="180" height="60" />
  <text class="text" x="650" y="180">Hard Veto Check</text>

  <line class="arrow" x1="180" y1="90" x2="220" y2="90" />
  <line class="arrow" x1="400" y1="90" x2="430" y2="90" />
  <line class="arrow" x1="610" y1="90" x2="640" y2="90" />

  <line class="arrow" x1="310" y1="120" x2="310" y2="150" />
  <line class="arrow" x1="520" y1="120" x2="520" y2="150" />
  <line class="arrow" x1="730" y1="120" x2="730" y2="150" />

  <rect class="box" x="220" y="260" width="220" height="60" />
  <text class="text" x="230" y="290">Compliance Score</text>

  <rect class="box" x="480" y="340" width="220" height="60" />
  <text class="text" x="490" y="370">Risk Manager</text>

  <line class="arrow" x1="400" y1="210" x2="400" y2="260" />
  <line class="arrow" x1="640" y1="210" x2="640" y2="340" />
  <line class="arrow" x1="440" y1="290" x2="480" y2="370" />
</svg>
